<mxfile host="Electron" agent="Mozilla/5.0 (Macintosh; Intel Mac OS X 10_15_7) AppleWebKit/537.36 (KHTML, like Gecko) draw.io/24.7.17 Chrome/128.0.6613.36 Electron/32.0.1 Safari/537.36" version="24.7.17">
  <diagram name="Page-1" id="cyUmn0-duqAFMJ_Rhsn7">
    <mxGraphModel dx="1454" dy="1408" grid="1" gridSize="10" guides="1" tooltips="1" connect="1" arrows="1" fold="1" page="1" pageScale="1" pageWidth="850" pageHeight="1100" math="0" shadow="0">
      <root>
        <mxCell id="0" />
        <mxCell id="1" parent="0" />
        <mxCell id="NwpMD1EXFLib6nW5NxLr-36" value="" style="rounded=0;whiteSpace=wrap;html=1;" vertex="1" parent="1">
          <mxGeometry x="220" y="140" width="420" height="1190" as="geometry" />
        </mxCell>
        <mxCell id="NwpMD1EXFLib6nW5NxLr-17" value="" style="rounded=0;whiteSpace=wrap;html=1;fontSize=14;" vertex="1" parent="1">
          <mxGeometry x="280" y="320" width="300" height="760" as="geometry" />
        </mxCell>
        <mxCell id="NwpMD1EXFLib6nW5NxLr-9" value="" style="rounded=0;whiteSpace=wrap;html=1;fontSize=14;" vertex="1" parent="1">
          <mxGeometry x="350" y="470" width="170" height="180" as="geometry" />
        </mxCell>
        <mxCell id="NwpMD1EXFLib6nW5NxLr-27" style="edgeStyle=orthogonalEdgeStyle;rounded=0;orthogonalLoop=1;jettySize=auto;html=1;exitX=0.5;exitY=0;exitDx=0;exitDy=0;fontSize=14;" edge="1" parent="1" source="NwpMD1EXFLib6nW5NxLr-1">
          <mxGeometry relative="1" as="geometry">
            <mxPoint x="435" y="110" as="targetPoint" />
          </mxGeometry>
        </mxCell>
        <mxCell id="NwpMD1EXFLib6nW5NxLr-1" value="&lt;font style=&quot;font-size: 14px;&quot;&gt;Linear Output Layer&lt;/font&gt;" style="rounded=0;whiteSpace=wrap;html=1;fontSize=14;" vertex="1" parent="1">
          <mxGeometry x="360" y="170" width="150" height="50" as="geometry" />
        </mxCell>
        <mxCell id="NwpMD1EXFLib6nW5NxLr-26" style="edgeStyle=orthogonalEdgeStyle;rounded=0;orthogonalLoop=1;jettySize=auto;html=1;exitX=0.5;exitY=0;exitDx=0;exitDy=0;entryX=0.5;entryY=1;entryDx=0;entryDy=0;fontSize=14;" edge="1" parent="1" source="NwpMD1EXFLib6nW5NxLr-2" target="NwpMD1EXFLib6nW5NxLr-1">
          <mxGeometry relative="1" as="geometry" />
        </mxCell>
        <mxCell id="NwpMD1EXFLib6nW5NxLr-2" value="&lt;font style=&quot;font-size: 14px;&quot;&gt;Final LayerNorm&lt;/font&gt;" style="rounded=0;whiteSpace=wrap;html=1;fontSize=14;" vertex="1" parent="1">
          <mxGeometry x="360" y="250" width="150" height="50" as="geometry" />
        </mxCell>
        <mxCell id="NwpMD1EXFLib6nW5NxLr-25" style="edgeStyle=orthogonalEdgeStyle;rounded=0;orthogonalLoop=1;jettySize=auto;html=1;exitX=0.5;exitY=0;exitDx=0;exitDy=0;exitPerimeter=0;entryX=0.5;entryY=1;entryDx=0;entryDy=0;fontSize=14;" edge="1" parent="1" source="NwpMD1EXFLib6nW5NxLr-3" target="NwpMD1EXFLib6nW5NxLr-2">
          <mxGeometry relative="1" as="geometry" />
        </mxCell>
        <mxCell id="NwpMD1EXFLib6nW5NxLr-3" value="" style="verticalLabelPosition=bottom;verticalAlign=top;html=1;shape=mxgraph.flowchart.summing_function;fontSize=14;" vertex="1" parent="1">
          <mxGeometry x="420" y="340" width="30" height="30" as="geometry" />
        </mxCell>
        <mxCell id="NwpMD1EXFLib6nW5NxLr-4" value="&lt;font style=&quot;font-size: 14px;&quot;&gt;Dropout&lt;/font&gt;" style="rounded=0;whiteSpace=wrap;html=1;fontSize=14;" vertex="1" parent="1">
          <mxGeometry x="360" y="400" width="150" height="50" as="geometry" />
        </mxCell>
        <mxCell id="NwpMD1EXFLib6nW5NxLr-5" value="&lt;font style=&quot;font-size: 14px;&quot;&gt;Linear&lt;/font&gt;" style="rounded=0;whiteSpace=wrap;html=1;fontSize=14;" vertex="1" parent="1">
          <mxGeometry x="370" y="500" width="130" height="40" as="geometry" />
        </mxCell>
        <mxCell id="NwpMD1EXFLib6nW5NxLr-6" value="&lt;font style=&quot;font-size: 14px;&quot;&gt;GELU&lt;/font&gt;" style="rounded=0;whiteSpace=wrap;html=1;fontSize=14;" vertex="1" parent="1">
          <mxGeometry x="370" y="550" width="130" height="40" as="geometry" />
        </mxCell>
        <mxCell id="NwpMD1EXFLib6nW5NxLr-7" value="&lt;font style=&quot;font-size: 14px;&quot;&gt;Linear&lt;/font&gt;" style="rounded=0;whiteSpace=wrap;html=1;fontSize=14;" vertex="1" parent="1">
          <mxGeometry x="370" y="600" width="130" height="40" as="geometry" />
        </mxCell>
        <mxCell id="NwpMD1EXFLib6nW5NxLr-23" style="edgeStyle=orthogonalEdgeStyle;rounded=0;orthogonalLoop=1;jettySize=auto;html=1;exitX=0.75;exitY=0;exitDx=0;exitDy=0;entryX=0.5;entryY=1;entryDx=0;entryDy=0;fontSize=14;" edge="1" parent="1" source="NwpMD1EXFLib6nW5NxLr-10" target="NwpMD1EXFLib6nW5NxLr-4">
          <mxGeometry relative="1" as="geometry" />
        </mxCell>
        <mxCell id="NwpMD1EXFLib6nW5NxLr-10" value="Feed Forward" style="text;html=1;align=left;verticalAlign=middle;whiteSpace=wrap;rounded=0;fontSize=14;" vertex="1" parent="1">
          <mxGeometry x="360" y="470" width="90" height="30" as="geometry" />
        </mxCell>
        <mxCell id="NwpMD1EXFLib6nW5NxLr-22" style="edgeStyle=orthogonalEdgeStyle;rounded=0;orthogonalLoop=1;jettySize=auto;html=1;exitX=0.5;exitY=0;exitDx=0;exitDy=0;fontSize=14;" edge="1" parent="1" source="NwpMD1EXFLib6nW5NxLr-11" target="NwpMD1EXFLib6nW5NxLr-9">
          <mxGeometry relative="1" as="geometry" />
        </mxCell>
        <mxCell id="NwpMD1EXFLib6nW5NxLr-11" value="&lt;font style=&quot;font-size: 14px;&quot;&gt;LayerNorm 2&lt;/font&gt;" style="rounded=0;whiteSpace=wrap;html=1;fontSize=14;" vertex="1" parent="1">
          <mxGeometry x="360" y="670" width="150" height="50" as="geometry" />
        </mxCell>
        <mxCell id="NwpMD1EXFLib6nW5NxLr-21" style="edgeStyle=orthogonalEdgeStyle;rounded=0;orthogonalLoop=1;jettySize=auto;html=1;exitX=0.5;exitY=0;exitDx=0;exitDy=0;exitPerimeter=0;entryX=0.5;entryY=1;entryDx=0;entryDy=0;fontSize=14;" edge="1" parent="1" source="NwpMD1EXFLib6nW5NxLr-12" target="NwpMD1EXFLib6nW5NxLr-11">
          <mxGeometry relative="1" as="geometry" />
        </mxCell>
        <mxCell id="NwpMD1EXFLib6nW5NxLr-12" value="" style="verticalLabelPosition=bottom;verticalAlign=top;html=1;shape=mxgraph.flowchart.summing_function;fontSize=14;" vertex="1" parent="1">
          <mxGeometry x="420" y="760" width="30" height="30" as="geometry" />
        </mxCell>
        <mxCell id="NwpMD1EXFLib6nW5NxLr-13" value="&lt;font style=&quot;font-size: 14px;&quot;&gt;Dropout&lt;/font&gt;" style="rounded=0;whiteSpace=wrap;html=1;fontSize=14;" vertex="1" parent="1">
          <mxGeometry x="360" y="810" width="150" height="50" as="geometry" />
        </mxCell>
        <mxCell id="NwpMD1EXFLib6nW5NxLr-19" value="" style="edgeStyle=orthogonalEdgeStyle;rounded=0;orthogonalLoop=1;jettySize=auto;html=1;fontSize=14;" edge="1" parent="1" source="NwpMD1EXFLib6nW5NxLr-14" target="NwpMD1EXFLib6nW5NxLr-13">
          <mxGeometry relative="1" as="geometry" />
        </mxCell>
        <mxCell id="NwpMD1EXFLib6nW5NxLr-14" value="&lt;font style=&quot;font-size: 14px;&quot;&gt;Masked Multi Head Attention&lt;/font&gt;" style="rounded=0;whiteSpace=wrap;html=1;fontSize=14;" vertex="1" parent="1">
          <mxGeometry x="350" y="890" width="170" height="60" as="geometry" />
        </mxCell>
        <mxCell id="NwpMD1EXFLib6nW5NxLr-15" value="&lt;font style=&quot;font-size: 14px;&quot;&gt;LayerNorm 1&lt;/font&gt;" style="rounded=0;whiteSpace=wrap;html=1;fontSize=14;" vertex="1" parent="1">
          <mxGeometry x="360" y="980" width="150" height="50" as="geometry" />
        </mxCell>
        <mxCell id="NwpMD1EXFLib6nW5NxLr-18" value="" style="endArrow=classic;html=1;rounded=0;exitX=0.5;exitY=0;exitDx=0;exitDy=0;entryX=0.5;entryY=1;entryDx=0;entryDy=0;fontSize=14;" edge="1" parent="1" source="NwpMD1EXFLib6nW5NxLr-15" target="NwpMD1EXFLib6nW5NxLr-14">
          <mxGeometry width="50" height="50" relative="1" as="geometry">
            <mxPoint x="500" y="720" as="sourcePoint" />
            <mxPoint x="550" y="670" as="targetPoint" />
          </mxGeometry>
        </mxCell>
        <mxCell id="NwpMD1EXFLib6nW5NxLr-20" style="edgeStyle=orthogonalEdgeStyle;rounded=0;orthogonalLoop=1;jettySize=auto;html=1;exitX=0.5;exitY=0;exitDx=0;exitDy=0;entryX=0.5;entryY=1;entryDx=0;entryDy=0;entryPerimeter=0;fontSize=14;" edge="1" parent="1" source="NwpMD1EXFLib6nW5NxLr-13" target="NwpMD1EXFLib6nW5NxLr-12">
          <mxGeometry relative="1" as="geometry" />
        </mxCell>
        <mxCell id="NwpMD1EXFLib6nW5NxLr-24" style="edgeStyle=orthogonalEdgeStyle;rounded=0;orthogonalLoop=1;jettySize=auto;html=1;exitX=0.5;exitY=0;exitDx=0;exitDy=0;entryX=0.5;entryY=1;entryDx=0;entryDy=0;entryPerimeter=0;fontSize=14;" edge="1" parent="1" source="NwpMD1EXFLib6nW5NxLr-4" target="NwpMD1EXFLib6nW5NxLr-3">
          <mxGeometry relative="1" as="geometry" />
        </mxCell>
        <mxCell id="NwpMD1EXFLib6nW5NxLr-28" value="" style="endArrow=classic;html=1;rounded=0;entryX=0.5;entryY=1;entryDx=0;entryDy=0;fontSize=14;exitX=0.5;exitY=0;exitDx=0;exitDy=0;" edge="1" parent="1" source="NwpMD1EXFLib6nW5NxLr-30" target="NwpMD1EXFLib6nW5NxLr-15">
          <mxGeometry width="50" height="50" relative="1" as="geometry">
            <mxPoint x="435" y="1090" as="sourcePoint" />
            <mxPoint x="550" y="620" as="targetPoint" />
          </mxGeometry>
        </mxCell>
        <mxCell id="NwpMD1EXFLib6nW5NxLr-29" value="Transformer Block" style="text;html=1;align=left;verticalAlign=middle;whiteSpace=wrap;rounded=0;fontSize=14;" vertex="1" parent="1">
          <mxGeometry x="290" y="330" width="60" height="30" as="geometry" />
        </mxCell>
        <mxCell id="NwpMD1EXFLib6nW5NxLr-30" value="Dropout" style="rounded=0;whiteSpace=wrap;html=1;fontSize=14;" vertex="1" parent="1">
          <mxGeometry x="360" y="1090" width="150" height="50" as="geometry" />
        </mxCell>
        <mxCell id="NwpMD1EXFLib6nW5NxLr-32" style="edgeStyle=orthogonalEdgeStyle;rounded=0;orthogonalLoop=1;jettySize=auto;html=1;exitX=0.5;exitY=0;exitDx=0;exitDy=0;entryX=0.5;entryY=1;entryDx=0;entryDy=0;" edge="1" parent="1" source="NwpMD1EXFLib6nW5NxLr-31" target="NwpMD1EXFLib6nW5NxLr-30">
          <mxGeometry relative="1" as="geometry" />
        </mxCell>
        <mxCell id="NwpMD1EXFLib6nW5NxLr-31" value="Positional Embedding" style="rounded=0;whiteSpace=wrap;html=1;fontSize=14;" vertex="1" parent="1">
          <mxGeometry x="340" y="1170" width="190" height="50" as="geometry" />
        </mxCell>
        <mxCell id="NwpMD1EXFLib6nW5NxLr-34" style="edgeStyle=orthogonalEdgeStyle;rounded=0;orthogonalLoop=1;jettySize=auto;html=1;exitX=0.5;exitY=0;exitDx=0;exitDy=0;entryX=0.5;entryY=1;entryDx=0;entryDy=0;" edge="1" parent="1" source="NwpMD1EXFLib6nW5NxLr-33" target="NwpMD1EXFLib6nW5NxLr-31">
          <mxGeometry relative="1" as="geometry" />
        </mxCell>
        <mxCell id="NwpMD1EXFLib6nW5NxLr-33" value="Token Embedding" style="rounded=0;whiteSpace=wrap;html=1;fontSize=14;" vertex="1" parent="1">
          <mxGeometry x="340" y="1250" width="190" height="50" as="geometry" />
        </mxCell>
        <mxCell id="NwpMD1EXFLib6nW5NxLr-37" value="GPT model" style="text;html=1;align=left;verticalAlign=middle;whiteSpace=wrap;rounded=0;fontSize=14;" vertex="1" parent="1">
          <mxGeometry x="230" y="150" width="60" height="30" as="geometry" />
        </mxCell>
        <mxCell id="NwpMD1EXFLib6nW5NxLr-39" style="edgeStyle=orthogonalEdgeStyle;rounded=0;orthogonalLoop=1;jettySize=auto;html=1;exitX=0.5;exitY=0;exitDx=0;exitDy=0;" edge="1" parent="1" source="NwpMD1EXFLib6nW5NxLr-38" target="NwpMD1EXFLib6nW5NxLr-33">
          <mxGeometry relative="1" as="geometry" />
        </mxCell>
        <mxCell id="NwpMD1EXFLib6nW5NxLr-38" value="Token IDs" style="rounded=0;whiteSpace=wrap;html=1;fontSize=14;" vertex="1" parent="1">
          <mxGeometry x="340" y="1360" width="190" height="50" as="geometry" />
        </mxCell>
        <mxCell id="NwpMD1EXFLib6nW5NxLr-41" value="" style="endArrow=classic;html=1;rounded=0;edgeStyle=orthogonalEdgeStyle;entryX=1;entryY=0.5;entryDx=0;entryDy=0;entryPerimeter=0;" edge="1" parent="1" target="NwpMD1EXFLib6nW5NxLr-12">
          <mxGeometry width="50" height="50" relative="1" as="geometry">
            <mxPoint x="435" y="1050" as="sourcePoint" />
            <mxPoint x="740" y="970" as="targetPoint" />
            <Array as="points">
              <mxPoint x="560" y="1050" />
              <mxPoint x="560" y="775" />
            </Array>
          </mxGeometry>
        </mxCell>
        <mxCell id="NwpMD1EXFLib6nW5NxLr-42" value="" style="endArrow=classic;html=1;rounded=0;edgeStyle=orthogonalEdgeStyle;entryX=1;entryY=0.5;entryDx=0;entryDy=0;entryPerimeter=0;" edge="1" parent="1" target="NwpMD1EXFLib6nW5NxLr-3">
          <mxGeometry width="50" height="50" relative="1" as="geometry">
            <mxPoint x="435" y="740" as="sourcePoint" />
            <mxPoint x="455" y="470" as="targetPoint" />
            <Array as="points">
              <mxPoint x="435" y="745" />
              <mxPoint x="560" y="745" />
              <mxPoint x="560" y="355" />
            </Array>
          </mxGeometry>
        </mxCell>
        <mxCell id="NwpMD1EXFLib6nW5NxLr-43" value="N x" style="text;html=1;align=center;verticalAlign=middle;whiteSpace=wrap;rounded=0;fontSize=16;" vertex="1" parent="1">
          <mxGeometry x="230" y="770" width="60" height="30" as="geometry" />
        </mxCell>
      </root>
    </mxGraphModel>
  </diagram>
</mxfile>
